<mxfile host="app.diagrams.net" modified="2021-03-04T23:52:12.338Z" agent="5.0 (Windows NT 10.0; Win64; x64) AppleWebKit/537.36 (KHTML, like Gecko) Chrome/88.0.4324.182 Safari/537.36 Edg/88.0.705.81" etag="w6Enq6cwF-BtQKbfZ0U7" version="14.4.4" type="github">
  <diagram id="gjvZ4gOpl2NELNdTMGmE" name="Page-1">
    <mxGraphModel dx="1038" dy="580" grid="1" gridSize="10" guides="1" tooltips="1" connect="1" arrows="1" fold="1" page="1" pageScale="1" pageWidth="827" pageHeight="1169" math="0" shadow="0">
      <root>
        <mxCell id="0" />
        <mxCell id="1" parent="0" />
        <mxCell id="oMFMiWhIfmU4jBjoLOnd-48" style="edgeStyle=none;rounded=0;orthogonalLoop=1;jettySize=auto;html=1;" parent="1" source="oMFMiWhIfmU4jBjoLOnd-3" target="oMFMiWhIfmU4jBjoLOnd-28" edge="1">
          <mxGeometry relative="1" as="geometry" />
        </mxCell>
        <mxCell id="oMFMiWhIfmU4jBjoLOnd-3" value="Accounts&lt;br&gt;Container" style="aspect=fixed;html=1;points=[];align=center;image;fontSize=12;image=img/lib/azure2/databases/Azure_Cosmos_DB.svg;" parent="1" vertex="1">
          <mxGeometry x="50" y="104.99000000000001" width="45" height="45" as="geometry" />
        </mxCell>
        <mxCell id="oMFMiWhIfmU4jBjoLOnd-42" style="rounded=0;orthogonalLoop=1;jettySize=auto;html=1;" parent="1" source="oMFMiWhIfmU4jBjoLOnd-40" target="OoWtU8M--wBZisnhyXfO-1" edge="1">
          <mxGeometry relative="1" as="geometry" />
        </mxCell>
        <mxCell id="oMFMiWhIfmU4jBjoLOnd-40" value="Update&lt;br&gt;Account Details" style="aspect=fixed;html=1;points=[];align=center;image;fontSize=12;image=img/lib/azure2/compute/Function_Apps.svg;" parent="1" vertex="1">
          <mxGeometry x="369" y="173.64000000000001" width="45" height="39.71" as="geometry" />
        </mxCell>
        <mxCell id="oMFMiWhIfmU4jBjoLOnd-41" style="rounded=0;orthogonalLoop=1;jettySize=auto;html=1;" parent="1" source="oMFMiWhIfmU4jBjoLOnd-29" target="oMFMiWhIfmU4jBjoLOnd-40" edge="1">
          <mxGeometry relative="1" as="geometry" />
        </mxCell>
        <mxCell id="OoWtU8M--wBZisnhyXfO-1" value="Preconsent&lt;br&gt;Users" style="aspect=fixed;html=1;points=[];align=center;image;fontSize=12;image=img/lib/azure2/databases/Azure_Cosmos_DB.svg;imageBackground=#99FF99;" parent="1" vertex="1">
          <mxGeometry x="540" y="171.00000000000003" width="45" height="45" as="geometry" />
        </mxCell>
        <mxCell id="OoWtU8M--wBZisnhyXfO-7" style="edgeStyle=orthogonalEdgeStyle;rounded=0;orthogonalLoop=1;jettySize=auto;html=1;" parent="1" source="OoWtU8M--wBZisnhyXfO-2" target="OoWtU8M--wBZisnhyXfO-3" edge="1">
          <mxGeometry relative="1" as="geometry" />
        </mxCell>
        <mxCell id="OoWtU8M--wBZisnhyXfO-2" value="Update&lt;br&gt;Account Status" style="aspect=fixed;html=1;points=[];align=center;image;fontSize=12;image=img/lib/azure2/compute/Function_Apps.svg;" parent="1" vertex="1">
          <mxGeometry x="369" y="62.63000000000001" width="45" height="39.71" as="geometry" />
        </mxCell>
        <mxCell id="OoWtU8M--wBZisnhyXfO-3" value="Consents" style="aspect=fixed;html=1;points=[];align=center;image;fontSize=12;image=img/lib/azure2/databases/Azure_Cosmos_DB.svg;" parent="1" vertex="1">
          <mxGeometry x="540" y="59.99000000000002" width="45" height="45" as="geometry" />
        </mxCell>
        <mxCell id="OoWtU8M--wBZisnhyXfO-6" style="rounded=0;orthogonalLoop=1;jettySize=auto;html=1;entryX=-0.022;entryY=0.336;entryDx=0;entryDy=0;entryPerimeter=0;" parent="1" source="oMFMiWhIfmU4jBjoLOnd-31" target="OoWtU8M--wBZisnhyXfO-2" edge="1">
          <mxGeometry relative="1" as="geometry" />
        </mxCell>
        <mxCell id="OoWtU8M--wBZisnhyXfO-9" value="" style="group" parent="1" vertex="1" connectable="0">
          <mxGeometry x="195.5" y="97" width="40" height="86" as="geometry" />
        </mxCell>
        <mxCell id="oMFMiWhIfmU4jBjoLOnd-32" value="" style="group" parent="OoWtU8M--wBZisnhyXfO-9" vertex="1" connectable="0">
          <mxGeometry x="4.5" width="31" height="60" as="geometry" />
        </mxCell>
        <mxCell id="oMFMiWhIfmU4jBjoLOnd-27" value="" style="verticalLabelPosition=bottom;verticalAlign=top;html=1;shape=mxgraph.basic.rect;fillColor2=none;strokeWidth=1;size=20;indent=5;fillColor=#1ba1e2;fontColor=#ffffff;strokeColor=none;" parent="oMFMiWhIfmU4jBjoLOnd-32" vertex="1">
          <mxGeometry width="31" height="9.836065573770492" as="geometry" />
        </mxCell>
        <mxCell id="oMFMiWhIfmU4jBjoLOnd-28" value="" style="verticalLabelPosition=bottom;verticalAlign=top;html=1;shape=mxgraph.basic.rect;fillColor2=none;strokeWidth=1;size=20;indent=5;fillColor=#1ba1e2;fontColor=#ffffff;strokeColor=none;" parent="oMFMiWhIfmU4jBjoLOnd-32" vertex="1">
          <mxGeometry y="25.573770491803277" width="31" height="9.836065573770492" as="geometry" />
        </mxCell>
        <mxCell id="oMFMiWhIfmU4jBjoLOnd-29" value="" style="verticalLabelPosition=bottom;verticalAlign=top;html=1;shape=mxgraph.basic.rect;fillColor2=none;strokeWidth=1;size=20;indent=5;fillColor=#1ba1e2;fontColor=#ffffff;strokeColor=none;" parent="oMFMiWhIfmU4jBjoLOnd-32" vertex="1">
          <mxGeometry y="50.16393442622951" width="31" height="9.836065573770492" as="geometry" />
        </mxCell>
        <mxCell id="oMFMiWhIfmU4jBjoLOnd-30" value="" style="verticalLabelPosition=bottom;verticalAlign=top;html=1;shape=mxgraph.basic.rect;fillColor2=none;strokeWidth=1;size=20;indent=5;fillColor=#60a917;fontColor=#ffffff;strokeColor=none;" parent="oMFMiWhIfmU4jBjoLOnd-32" vertex="1">
          <mxGeometry y="37.868852459016395" width="31" height="9.836065573770492" as="geometry" />
        </mxCell>
        <mxCell id="oMFMiWhIfmU4jBjoLOnd-31" value="" style="verticalLabelPosition=bottom;verticalAlign=top;html=1;shape=mxgraph.basic.rect;fillColor2=none;strokeWidth=1;size=20;indent=5;fillColor=#60a917;fontColor=#ffffff;strokeColor=none;" parent="oMFMiWhIfmU4jBjoLOnd-32" vertex="1">
          <mxGeometry y="12.786885245901638" width="31" height="9.836065573770492" as="geometry" />
        </mxCell>
        <mxCell id="OoWtU8M--wBZisnhyXfO-8" value="Change&lt;br&gt;Feed" style="text;html=1;strokeColor=none;fillColor=none;align=center;verticalAlign=middle;whiteSpace=wrap;rounded=0;" parent="OoWtU8M--wBZisnhyXfO-9" vertex="1">
          <mxGeometry y="66" width="40" height="20" as="geometry" />
        </mxCell>
        <mxCell id="OoWtU8M--wBZisnhyXfO-10" value="Account Update" style="text;html=1;strokeColor=none;fillColor=none;align=center;verticalAlign=middle;whiteSpace=wrap;rounded=0;fontSize=17;fontStyle=1" parent="1" vertex="1">
          <mxGeometry x="50" y="40" width="165" height="40" as="geometry" />
        </mxCell>
        <mxCell id="OoWtU8M--wBZisnhyXfO-30" style="edgeStyle=none;rounded=0;orthogonalLoop=1;jettySize=auto;html=1;" parent="1" source="OoWtU8M--wBZisnhyXfO-31" target="OoWtU8M--wBZisnhyXfO-43" edge="1">
          <mxGeometry relative="1" as="geometry" />
        </mxCell>
        <mxCell id="OoWtU8M--wBZisnhyXfO-31" value="Customers&lt;br&gt;Container" style="aspect=fixed;html=1;points=[];align=center;image;fontSize=12;image=img/lib/azure2/databases/Azure_Cosmos_DB.svg;" parent="1" vertex="1">
          <mxGeometry x="40" y="317.99" width="45" height="45" as="geometry" />
        </mxCell>
        <mxCell id="OoWtU8M--wBZisnhyXfO-36" style="edgeStyle=orthogonalEdgeStyle;rounded=0;orthogonalLoop=1;jettySize=auto;html=1;" parent="1" source="OoWtU8M--wBZisnhyXfO-37" target="OoWtU8M--wBZisnhyXfO-38" edge="1">
          <mxGeometry relative="1" as="geometry" />
        </mxCell>
        <mxCell id="OoWtU8M--wBZisnhyXfO-37" value="Update&lt;br&gt;Date of Birth&lt;br&gt;and Nickname" style="aspect=fixed;html=1;points=[];align=center;image;fontSize=12;image=img/lib/azure2/compute/Function_Apps.svg;" parent="1" vertex="1">
          <mxGeometry x="359" y="275.63" width="45" height="39.71" as="geometry" />
        </mxCell>
        <mxCell id="OoWtU8M--wBZisnhyXfO-38" value="Preconsent&lt;br&gt;Users" style="aspect=fixed;html=1;points=[];align=center;image;fontSize=12;image=img/lib/azure2/databases/Azure_Cosmos_DB.svg;imageBackground=#99FF99;" parent="1" vertex="1">
          <mxGeometry x="530" y="272.99" width="45" height="45" as="geometry" />
        </mxCell>
        <mxCell id="OoWtU8M--wBZisnhyXfO-39" style="rounded=0;orthogonalLoop=1;jettySize=auto;html=1;entryX=-0.022;entryY=0.336;entryDx=0;entryDy=0;entryPerimeter=0;" parent="1" source="OoWtU8M--wBZisnhyXfO-46" target="OoWtU8M--wBZisnhyXfO-37" edge="1">
          <mxGeometry relative="1" as="geometry" />
        </mxCell>
        <mxCell id="OoWtU8M--wBZisnhyXfO-40" value="" style="group" parent="1" vertex="1" connectable="0">
          <mxGeometry x="185.5" y="310" width="40" height="86" as="geometry" />
        </mxCell>
        <mxCell id="OoWtU8M--wBZisnhyXfO-41" value="" style="group" parent="OoWtU8M--wBZisnhyXfO-40" vertex="1" connectable="0">
          <mxGeometry x="4.5" width="31" height="60" as="geometry" />
        </mxCell>
        <mxCell id="OoWtU8M--wBZisnhyXfO-42" value="" style="verticalLabelPosition=bottom;verticalAlign=top;html=1;shape=mxgraph.basic.rect;fillColor2=none;strokeWidth=1;size=20;indent=5;fillColor=#1ba1e2;fontColor=#ffffff;strokeColor=none;" parent="OoWtU8M--wBZisnhyXfO-41" vertex="1">
          <mxGeometry width="31" height="9.836065573770492" as="geometry" />
        </mxCell>
        <mxCell id="OoWtU8M--wBZisnhyXfO-43" value="" style="verticalLabelPosition=bottom;verticalAlign=top;html=1;shape=mxgraph.basic.rect;fillColor2=none;strokeWidth=1;size=20;indent=5;fillColor=#1ba1e2;fontColor=#ffffff;strokeColor=none;" parent="OoWtU8M--wBZisnhyXfO-41" vertex="1">
          <mxGeometry y="25.573770491803277" width="31" height="9.836065573770492" as="geometry" />
        </mxCell>
        <mxCell id="OoWtU8M--wBZisnhyXfO-44" value="" style="verticalLabelPosition=bottom;verticalAlign=top;html=1;shape=mxgraph.basic.rect;fillColor2=none;strokeWidth=1;size=20;indent=5;fillColor=#1ba1e2;fontColor=#ffffff;strokeColor=none;" parent="OoWtU8M--wBZisnhyXfO-41" vertex="1">
          <mxGeometry y="50.16393442622951" width="31" height="9.836065573770492" as="geometry" />
        </mxCell>
        <mxCell id="OoWtU8M--wBZisnhyXfO-45" value="" style="verticalLabelPosition=bottom;verticalAlign=top;html=1;shape=mxgraph.basic.rect;fillColor2=none;strokeWidth=1;size=20;indent=5;fillColor=#60a917;fontColor=#ffffff;strokeColor=none;" parent="OoWtU8M--wBZisnhyXfO-41" vertex="1">
          <mxGeometry y="37.868852459016395" width="31" height="9.836065573770492" as="geometry" />
        </mxCell>
        <mxCell id="OoWtU8M--wBZisnhyXfO-46" value="" style="verticalLabelPosition=bottom;verticalAlign=top;html=1;shape=mxgraph.basic.rect;fillColor2=none;strokeWidth=1;size=20;indent=5;fillColor=#60a917;fontColor=#ffffff;strokeColor=none;" parent="OoWtU8M--wBZisnhyXfO-41" vertex="1">
          <mxGeometry y="12.786885245901638" width="31" height="9.836065573770492" as="geometry" />
        </mxCell>
        <mxCell id="OoWtU8M--wBZisnhyXfO-47" value="Change&lt;br&gt;Feed" style="text;html=1;strokeColor=none;fillColor=none;align=center;verticalAlign=middle;whiteSpace=wrap;rounded=0;" parent="OoWtU8M--wBZisnhyXfO-40" vertex="1">
          <mxGeometry y="66" width="40" height="20" as="geometry" />
        </mxCell>
        <mxCell id="OoWtU8M--wBZisnhyXfO-48" value="Customer Update" style="text;html=1;strokeColor=none;fillColor=none;align=center;verticalAlign=middle;whiteSpace=wrap;rounded=0;fontSize=17;fontStyle=1" parent="1" vertex="1">
          <mxGeometry x="40" y="245" width="165" height="40" as="geometry" />
        </mxCell>
        <mxCell id="OoWtU8M--wBZisnhyXfO-50" style="edgeStyle=none;rounded=0;orthogonalLoop=1;jettySize=auto;html=1;" parent="1" source="OoWtU8M--wBZisnhyXfO-51" target="OoWtU8M--wBZisnhyXfO-59" edge="1">
          <mxGeometry relative="1" as="geometry" />
        </mxCell>
        <mxCell id="OoWtU8M--wBZisnhyXfO-51" value="Preconsent&lt;br&gt;Users" style="aspect=fixed;html=1;points=[];align=center;image;fontSize=12;image=img/lib/azure2/databases/Azure_Cosmos_DB.svg;imageBackground=#99FF99;" parent="1" vertex="1">
          <mxGeometry x="40" y="502.99" width="45" height="45" as="geometry" />
        </mxCell>
        <mxCell id="OoWtU8M--wBZisnhyXfO-52" style="edgeStyle=orthogonalEdgeStyle;rounded=0;orthogonalLoop=1;jettySize=auto;html=1;" parent="1" source="OoWtU8M--wBZisnhyXfO-53" target="OoWtU8M--wBZisnhyXfO-54" edge="1">
          <mxGeometry relative="1" as="geometry" />
        </mxCell>
        <mxCell id="OoWtU8M--wBZisnhyXfO-53" value="Update&lt;br&gt;Customer Lookup" style="aspect=fixed;html=1;points=[];align=center;image;fontSize=12;image=img/lib/azure2/compute/Function_Apps.svg;" parent="1" vertex="1">
          <mxGeometry x="359" y="460.63" width="45" height="39.71" as="geometry" />
        </mxCell>
        <mxCell id="OoWtU8M--wBZisnhyXfO-54" value="Customer&lt;br&gt;Lookup" style="aspect=fixed;html=1;points=[];align=center;image;fontSize=12;image=img/lib/azure2/databases/Azure_Cosmos_DB.svg;" parent="1" vertex="1">
          <mxGeometry x="530" y="457.99" width="45" height="45" as="geometry" />
        </mxCell>
        <mxCell id="OoWtU8M--wBZisnhyXfO-55" style="rounded=0;orthogonalLoop=1;jettySize=auto;html=1;entryX=-0.022;entryY=0.336;entryDx=0;entryDy=0;entryPerimeter=0;" parent="1" source="OoWtU8M--wBZisnhyXfO-62" target="OoWtU8M--wBZisnhyXfO-53" edge="1">
          <mxGeometry relative="1" as="geometry" />
        </mxCell>
        <mxCell id="OoWtU8M--wBZisnhyXfO-56" value="" style="group" parent="1" vertex="1" connectable="0">
          <mxGeometry x="185.5" y="495" width="40" height="86" as="geometry" />
        </mxCell>
        <mxCell id="OoWtU8M--wBZisnhyXfO-57" value="" style="group" parent="OoWtU8M--wBZisnhyXfO-56" vertex="1" connectable="0">
          <mxGeometry x="4.5" width="31" height="60" as="geometry" />
        </mxCell>
        <mxCell id="OoWtU8M--wBZisnhyXfO-58" value="" style="verticalLabelPosition=bottom;verticalAlign=top;html=1;shape=mxgraph.basic.rect;fillColor2=none;strokeWidth=1;size=20;indent=5;fillColor=#1ba1e2;fontColor=#ffffff;strokeColor=none;" parent="OoWtU8M--wBZisnhyXfO-57" vertex="1">
          <mxGeometry width="31" height="9.836065573770492" as="geometry" />
        </mxCell>
        <mxCell id="OoWtU8M--wBZisnhyXfO-59" value="" style="verticalLabelPosition=bottom;verticalAlign=top;html=1;shape=mxgraph.basic.rect;fillColor2=none;strokeWidth=1;size=20;indent=5;fillColor=#1ba1e2;fontColor=#ffffff;strokeColor=none;" parent="OoWtU8M--wBZisnhyXfO-57" vertex="1">
          <mxGeometry y="25.573770491803277" width="31" height="9.836065573770492" as="geometry" />
        </mxCell>
        <mxCell id="OoWtU8M--wBZisnhyXfO-60" value="" style="verticalLabelPosition=bottom;verticalAlign=top;html=1;shape=mxgraph.basic.rect;fillColor2=none;strokeWidth=1;size=20;indent=5;fillColor=#1ba1e2;fontColor=#ffffff;strokeColor=none;" parent="OoWtU8M--wBZisnhyXfO-57" vertex="1">
          <mxGeometry y="50.16393442622951" width="31" height="9.836065573770492" as="geometry" />
        </mxCell>
        <mxCell id="OoWtU8M--wBZisnhyXfO-61" value="" style="verticalLabelPosition=bottom;verticalAlign=top;html=1;shape=mxgraph.basic.rect;fillColor2=none;strokeWidth=1;size=20;indent=5;fillColor=#60a917;fontColor=#ffffff;strokeColor=none;" parent="OoWtU8M--wBZisnhyXfO-57" vertex="1">
          <mxGeometry y="37.868852459016395" width="31" height="9.836065573770492" as="geometry" />
        </mxCell>
        <mxCell id="OoWtU8M--wBZisnhyXfO-62" value="" style="verticalLabelPosition=bottom;verticalAlign=top;html=1;shape=mxgraph.basic.rect;fillColor2=none;strokeWidth=1;size=20;indent=5;fillColor=#60a917;fontColor=#ffffff;strokeColor=none;" parent="OoWtU8M--wBZisnhyXfO-57" vertex="1">
          <mxGeometry y="12.786885245901638" width="31" height="9.836065573770492" as="geometry" />
        </mxCell>
        <mxCell id="OoWtU8M--wBZisnhyXfO-63" value="Change&lt;br&gt;Feed" style="text;html=1;strokeColor=none;fillColor=none;align=center;verticalAlign=middle;whiteSpace=wrap;rounded=0;" parent="OoWtU8M--wBZisnhyXfO-56" vertex="1">
          <mxGeometry y="66" width="40" height="20" as="geometry" />
        </mxCell>
        <mxCell id="OoWtU8M--wBZisnhyXfO-64" value="Pre Consent Users" style="text;html=1;strokeColor=none;fillColor=none;align=center;verticalAlign=middle;whiteSpace=wrap;rounded=0;fontSize=17;fontStyle=1" parent="1" vertex="1">
          <mxGeometry x="40" y="432" width="165" height="40" as="geometry" />
        </mxCell>
        <mxCell id="P0eFKt6O6_u8Fyc4BtCG-4" style="edgeStyle=none;rounded=0;orthogonalLoop=1;jettySize=auto;html=1;startArrow=none;startFill=0;" parent="1" source="P0eFKt6O6_u8Fyc4BtCG-1" target="P0eFKt6O6_u8Fyc4BtCG-2" edge="1">
          <mxGeometry relative="1" as="geometry" />
        </mxCell>
        <mxCell id="P0eFKt6O6_u8Fyc4BtCG-1" value="Update&lt;br&gt;Customer Eligibility" style="aspect=fixed;html=1;points=[];align=center;image;fontSize=12;image=img/lib/azure2/compute/Function_Apps.svg;" parent="1" vertex="1">
          <mxGeometry x="359" y="571.64" width="45" height="39.71" as="geometry" />
        </mxCell>
        <mxCell id="P0eFKt6O6_u8Fyc4BtCG-2" value="Customer&lt;br&gt;Eligibility" style="aspect=fixed;html=1;points=[];align=center;image;fontSize=12;image=img/lib/azure2/databases/Azure_Cosmos_DB.svg;" parent="1" vertex="1">
          <mxGeometry x="530" y="569" width="45" height="45" as="geometry" />
        </mxCell>
        <mxCell id="P0eFKt6O6_u8Fyc4BtCG-3" style="rounded=0;orthogonalLoop=1;jettySize=auto;html=1;startArrow=none;startFill=0;" parent="1" source="OoWtU8M--wBZisnhyXfO-61" target="P0eFKt6O6_u8Fyc4BtCG-1" edge="1">
          <mxGeometry relative="1" as="geometry" />
        </mxCell>
        <mxCell id="ilwAuIT0HePhSRycfTEz-1" style="edgeStyle=none;rounded=0;orthogonalLoop=1;jettySize=auto;html=1;" edge="1" parent="1" source="ilwAuIT0HePhSRycfTEz-2" target="ilwAuIT0HePhSRycfTEz-10">
          <mxGeometry relative="1" as="geometry" />
        </mxCell>
        <mxCell id="ilwAuIT0HePhSRycfTEz-2" value="Customers&lt;br&gt;Container" style="aspect=fixed;html=1;points=[];align=center;image;fontSize=12;image=img/lib/azure2/databases/Azure_Cosmos_DB.svg;" vertex="1" parent="1">
          <mxGeometry x="132" y="842" width="45" height="45" as="geometry" />
        </mxCell>
        <mxCell id="ilwAuIT0HePhSRycfTEz-3" style="edgeStyle=orthogonalEdgeStyle;rounded=0;orthogonalLoop=1;jettySize=auto;html=1;" edge="1" parent="1" source="ilwAuIT0HePhSRycfTEz-4" target="ilwAuIT0HePhSRycfTEz-5">
          <mxGeometry relative="1" as="geometry" />
        </mxCell>
        <mxCell id="ilwAuIT0HePhSRycfTEz-4" value="Update&lt;br&gt;Date of Birth&lt;br&gt;and Nickname" style="aspect=fixed;html=1;points=[];align=center;image;fontSize=12;image=img/lib/azure2/compute/Function_Apps.svg;" vertex="1" parent="1">
          <mxGeometry x="301.5" y="786.35" width="45" height="39.71" as="geometry" />
        </mxCell>
        <mxCell id="ilwAuIT0HePhSRycfTEz-5" value="Preconsent&lt;br&gt;Users" style="aspect=fixed;html=1;points=[];align=center;image;fontSize=12;image=img/lib/azure2/databases/Azure_Cosmos_DB.svg;imageBackground=#99FF99;" vertex="1" parent="1">
          <mxGeometry x="446" y="783.36" width="45" height="45" as="geometry" />
        </mxCell>
        <mxCell id="ilwAuIT0HePhSRycfTEz-6" style="rounded=0;orthogonalLoop=1;jettySize=auto;html=1;entryX=-0.022;entryY=0.336;entryDx=0;entryDy=0;entryPerimeter=0;" edge="1" parent="1" source="ilwAuIT0HePhSRycfTEz-13" target="ilwAuIT0HePhSRycfTEz-4">
          <mxGeometry relative="1" as="geometry" />
        </mxCell>
        <mxCell id="ilwAuIT0HePhSRycfTEz-7" value="" style="group" vertex="1" connectable="0" parent="1">
          <mxGeometry x="203" y="846.01" width="20" height="52.99" as="geometry" />
        </mxCell>
        <mxCell id="ilwAuIT0HePhSRycfTEz-8" value="" style="group" vertex="1" connectable="0" parent="ilwAuIT0HePhSRycfTEz-7">
          <mxGeometry x="2.25" width="15.5" height="36.96976744186047" as="geometry" />
        </mxCell>
        <mxCell id="ilwAuIT0HePhSRycfTEz-9" value="" style="verticalLabelPosition=bottom;verticalAlign=top;html=1;shape=mxgraph.basic.rect;fillColor2=none;strokeWidth=1;size=20;indent=5;fillColor=#1ba1e2;fontColor=#ffffff;strokeColor=none;" vertex="1" parent="ilwAuIT0HePhSRycfTEz-8">
          <mxGeometry width="15.5" height="6.0606176134197485" as="geometry" />
        </mxCell>
        <mxCell id="ilwAuIT0HePhSRycfTEz-10" value="" style="verticalLabelPosition=bottom;verticalAlign=top;html=1;shape=mxgraph.basic.rect;fillColor2=none;strokeWidth=1;size=20;indent=5;fillColor=#1ba1e2;fontColor=#ffffff;strokeColor=none;" vertex="1" parent="ilwAuIT0HePhSRycfTEz-8">
          <mxGeometry y="15.757605794891345" width="15.5" height="6.0606176134197485" as="geometry" />
        </mxCell>
        <mxCell id="ilwAuIT0HePhSRycfTEz-11" value="" style="verticalLabelPosition=bottom;verticalAlign=top;html=1;shape=mxgraph.basic.rect;fillColor2=none;strokeWidth=1;size=20;indent=5;fillColor=#1ba1e2;fontColor=#ffffff;strokeColor=none;" vertex="1" parent="ilwAuIT0HePhSRycfTEz-8">
          <mxGeometry y="30.909149828440718" width="15.5" height="6.0606176134197485" as="geometry" />
        </mxCell>
        <mxCell id="ilwAuIT0HePhSRycfTEz-12" value="" style="verticalLabelPosition=bottom;verticalAlign=top;html=1;shape=mxgraph.basic.rect;fillColor2=none;strokeWidth=1;size=20;indent=5;fillColor=#60a917;fontColor=#ffffff;strokeColor=none;" vertex="1" parent="ilwAuIT0HePhSRycfTEz-8">
          <mxGeometry y="23.333377811666033" width="15.5" height="6.0606176134197485" as="geometry" />
        </mxCell>
        <mxCell id="ilwAuIT0HePhSRycfTEz-13" value="" style="verticalLabelPosition=bottom;verticalAlign=top;html=1;shape=mxgraph.basic.rect;fillColor2=none;strokeWidth=1;size=20;indent=5;fillColor=#60a917;fontColor=#ffffff;strokeColor=none;" vertex="1" parent="ilwAuIT0HePhSRycfTEz-8">
          <mxGeometry y="7.878802897445673" width="15.5" height="6.0606176134197485" as="geometry" />
        </mxCell>
        <mxCell id="ilwAuIT0HePhSRycfTEz-15" style="edgeStyle=none;rounded=0;orthogonalLoop=1;jettySize=auto;html=1;" edge="1" parent="1" source="ilwAuIT0HePhSRycfTEz-5" target="ilwAuIT0HePhSRycfTEz-24">
          <mxGeometry relative="1" as="geometry">
            <mxPoint x="561" y="804.5002837326608" as="sourcePoint" />
          </mxGeometry>
        </mxCell>
        <mxCell id="ilwAuIT0HePhSRycfTEz-17" style="edgeStyle=orthogonalEdgeStyle;rounded=0;orthogonalLoop=1;jettySize=auto;html=1;" edge="1" parent="1" source="ilwAuIT0HePhSRycfTEz-18" target="ilwAuIT0HePhSRycfTEz-19">
          <mxGeometry relative="1" as="geometry" />
        </mxCell>
        <mxCell id="ilwAuIT0HePhSRycfTEz-18" value="Update&lt;br&gt;Customer Lookup" style="aspect=fixed;html=1;points=[];align=center;image;fontSize=12;image=img/lib/azure2/compute/Function_Apps.svg;" vertex="1" parent="1">
          <mxGeometry x="586" y="739.65" width="45" height="39.71" as="geometry" />
        </mxCell>
        <mxCell id="ilwAuIT0HePhSRycfTEz-19" value="Customer&lt;br&gt;Lookup" style="aspect=fixed;html=1;points=[];align=center;image;fontSize=12;image=img/lib/azure2/databases/Azure_Cosmos_DB.svg;" vertex="1" parent="1">
          <mxGeometry x="716" y="737.01" width="45" height="45" as="geometry" />
        </mxCell>
        <mxCell id="ilwAuIT0HePhSRycfTEz-20" style="rounded=0;orthogonalLoop=1;jettySize=auto;html=1;entryX=-0.022;entryY=0.336;entryDx=0;entryDy=0;entryPerimeter=0;" edge="1" parent="1" source="ilwAuIT0HePhSRycfTEz-27" target="ilwAuIT0HePhSRycfTEz-18">
          <mxGeometry relative="1" as="geometry" />
        </mxCell>
        <mxCell id="ilwAuIT0HePhSRycfTEz-21" value="" style="group" vertex="1" connectable="0" parent="1">
          <mxGeometry x="511" y="785.35" width="20" height="57.65" as="geometry" />
        </mxCell>
        <mxCell id="ilwAuIT0HePhSRycfTEz-22" value="" style="group" vertex="1" connectable="0" parent="ilwAuIT0HePhSRycfTEz-21">
          <mxGeometry x="2.25" width="15.5" height="40.22093023255814" as="geometry" />
        </mxCell>
        <mxCell id="ilwAuIT0HePhSRycfTEz-23" value="" style="verticalLabelPosition=bottom;verticalAlign=top;html=1;shape=mxgraph.basic.rect;fillColor2=none;strokeWidth=1;size=20;indent=5;fillColor=#1ba1e2;fontColor=#ffffff;strokeColor=none;" vertex="1" parent="ilwAuIT0HePhSRycfTEz-22">
          <mxGeometry width="15.5" height="6.593595120091498" as="geometry" />
        </mxCell>
        <mxCell id="ilwAuIT0HePhSRycfTEz-24" value="" style="verticalLabelPosition=bottom;verticalAlign=top;html=1;shape=mxgraph.basic.rect;fillColor2=none;strokeWidth=1;size=20;indent=5;fillColor=#1ba1e2;fontColor=#ffffff;strokeColor=none;" vertex="1" parent="ilwAuIT0HePhSRycfTEz-22">
          <mxGeometry y="17.143347312237893" width="15.5" height="6.593595120091498" as="geometry" />
        </mxCell>
        <mxCell id="ilwAuIT0HePhSRycfTEz-25" value="" style="verticalLabelPosition=bottom;verticalAlign=top;html=1;shape=mxgraph.basic.rect;fillColor2=none;strokeWidth=1;size=20;indent=5;fillColor=#1ba1e2;fontColor=#ffffff;strokeColor=none;" vertex="1" parent="ilwAuIT0HePhSRycfTEz-22">
          <mxGeometry y="33.62733511246664" width="15.5" height="6.593595120091498" as="geometry" />
        </mxCell>
        <mxCell id="ilwAuIT0HePhSRycfTEz-26" value="" style="verticalLabelPosition=bottom;verticalAlign=top;html=1;shape=mxgraph.basic.rect;fillColor2=none;strokeWidth=1;size=20;indent=5;fillColor=#60a917;fontColor=#ffffff;strokeColor=none;" vertex="1" parent="ilwAuIT0HePhSRycfTEz-22">
          <mxGeometry y="25.385341212352266" width="15.5" height="6.593595120091498" as="geometry" />
        </mxCell>
        <mxCell id="ilwAuIT0HePhSRycfTEz-27" value="" style="verticalLabelPosition=bottom;verticalAlign=top;html=1;shape=mxgraph.basic.rect;fillColor2=none;strokeWidth=1;size=20;indent=5;fillColor=#60a917;fontColor=#ffffff;strokeColor=none;" vertex="1" parent="ilwAuIT0HePhSRycfTEz-22">
          <mxGeometry y="8.571673656118946" width="15.5" height="6.593595120091498" as="geometry" />
        </mxCell>
        <mxCell id="ilwAuIT0HePhSRycfTEz-29" style="edgeStyle=none;rounded=0;orthogonalLoop=1;jettySize=auto;html=1;startArrow=none;startFill=0;" edge="1" parent="1" source="ilwAuIT0HePhSRycfTEz-30" target="ilwAuIT0HePhSRycfTEz-31">
          <mxGeometry relative="1" as="geometry" />
        </mxCell>
        <mxCell id="ilwAuIT0HePhSRycfTEz-30" value="Update&lt;br&gt;Customer Eligibility" style="aspect=fixed;html=1;points=[];align=center;image;fontSize=12;image=img/lib/azure2/compute/Function_Apps.svg;" vertex="1" parent="1">
          <mxGeometry x="586" y="867" width="45" height="39.71" as="geometry" />
        </mxCell>
        <mxCell id="ilwAuIT0HePhSRycfTEz-31" value="Customer&lt;br&gt;Eligibility" style="aspect=fixed;html=1;points=[];align=center;image;fontSize=12;image=img/lib/azure2/databases/Azure_Cosmos_DB.svg;" vertex="1" parent="1">
          <mxGeometry x="716" y="864.36" width="45" height="45" as="geometry" />
        </mxCell>
        <mxCell id="ilwAuIT0HePhSRycfTEz-32" style="rounded=0;orthogonalLoop=1;jettySize=auto;html=1;startArrow=none;startFill=0;" edge="1" parent="1" source="ilwAuIT0HePhSRycfTEz-26" target="ilwAuIT0HePhSRycfTEz-30">
          <mxGeometry relative="1" as="geometry" />
        </mxCell>
        <mxCell id="ilwAuIT0HePhSRycfTEz-33" style="edgeStyle=none;rounded=0;orthogonalLoop=1;jettySize=auto;html=1;" edge="1" parent="1" source="ilwAuIT0HePhSRycfTEz-34" target="ilwAuIT0HePhSRycfTEz-38">
          <mxGeometry relative="1" as="geometry" />
        </mxCell>
        <mxCell id="ilwAuIT0HePhSRycfTEz-34" value="Accounts&lt;br&gt;Container" style="aspect=fixed;html=1;points=[];align=center;image;fontSize=12;image=img/lib/azure2/databases/Azure_Cosmos_DB.svg;" vertex="1" parent="1">
          <mxGeometry x="132" y="957" width="45" height="45" as="geometry" />
        </mxCell>
        <mxCell id="ilwAuIT0HePhSRycfTEz-35" value="" style="group" vertex="1" connectable="0" parent="1">
          <mxGeometry x="203" y="961.01" width="20" height="52.99" as="geometry" />
        </mxCell>
        <mxCell id="ilwAuIT0HePhSRycfTEz-36" value="" style="group" vertex="1" connectable="0" parent="ilwAuIT0HePhSRycfTEz-35">
          <mxGeometry x="2.25" width="15.5" height="36.96976744186047" as="geometry" />
        </mxCell>
        <mxCell id="ilwAuIT0HePhSRycfTEz-37" value="" style="verticalLabelPosition=bottom;verticalAlign=top;html=1;shape=mxgraph.basic.rect;fillColor2=none;strokeWidth=1;size=20;indent=5;fillColor=#1ba1e2;fontColor=#ffffff;strokeColor=none;" vertex="1" parent="ilwAuIT0HePhSRycfTEz-36">
          <mxGeometry width="15.5" height="6.0606176134197485" as="geometry" />
        </mxCell>
        <mxCell id="ilwAuIT0HePhSRycfTEz-38" value="" style="verticalLabelPosition=bottom;verticalAlign=top;html=1;shape=mxgraph.basic.rect;fillColor2=none;strokeWidth=1;size=20;indent=5;fillColor=#1ba1e2;fontColor=#ffffff;strokeColor=none;" vertex="1" parent="ilwAuIT0HePhSRycfTEz-36">
          <mxGeometry y="15.757605794891345" width="15.5" height="6.0606176134197485" as="geometry" />
        </mxCell>
        <mxCell id="ilwAuIT0HePhSRycfTEz-39" value="" style="verticalLabelPosition=bottom;verticalAlign=top;html=1;shape=mxgraph.basic.rect;fillColor2=none;strokeWidth=1;size=20;indent=5;fillColor=#1ba1e2;fontColor=#ffffff;strokeColor=none;" vertex="1" parent="ilwAuIT0HePhSRycfTEz-36">
          <mxGeometry y="30.909149828440718" width="15.5" height="6.0606176134197485" as="geometry" />
        </mxCell>
        <mxCell id="ilwAuIT0HePhSRycfTEz-40" value="" style="verticalLabelPosition=bottom;verticalAlign=top;html=1;shape=mxgraph.basic.rect;fillColor2=none;strokeWidth=1;size=20;indent=5;fillColor=#60a917;fontColor=#ffffff;strokeColor=none;" vertex="1" parent="ilwAuIT0HePhSRycfTEz-36">
          <mxGeometry y="23.333377811666033" width="15.5" height="6.0606176134197485" as="geometry" />
        </mxCell>
        <mxCell id="ilwAuIT0HePhSRycfTEz-41" value="" style="verticalLabelPosition=bottom;verticalAlign=top;html=1;shape=mxgraph.basic.rect;fillColor2=none;strokeWidth=1;size=20;indent=5;fillColor=#60a917;fontColor=#ffffff;strokeColor=none;" vertex="1" parent="ilwAuIT0HePhSRycfTEz-36">
          <mxGeometry y="7.878802897445673" width="15.5" height="6.0606176134197485" as="geometry" />
        </mxCell>
        <mxCell id="ilwAuIT0HePhSRycfTEz-42" style="rounded=0;orthogonalLoop=1;jettySize=auto;html=1;" edge="1" parent="1" source="ilwAuIT0HePhSRycfTEz-43" target="ilwAuIT0HePhSRycfTEz-5">
          <mxGeometry relative="1" as="geometry">
            <mxPoint x="472.5" y="1090.5093421052632" as="targetPoint" />
          </mxGeometry>
        </mxCell>
        <mxCell id="ilwAuIT0HePhSRycfTEz-43" value="Update&lt;br&gt;Account Details" style="aspect=fixed;html=1;points=[];align=center;image;fontSize=12;image=img/lib/azure2/compute/Function_Apps.svg;" vertex="1" parent="1">
          <mxGeometry x="306" y="921.3000000000002" width="45" height="39.71" as="geometry" />
        </mxCell>
        <mxCell id="ilwAuIT0HePhSRycfTEz-45" style="edgeStyle=orthogonalEdgeStyle;rounded=0;orthogonalLoop=1;jettySize=auto;html=1;" edge="1" parent="1" source="ilwAuIT0HePhSRycfTEz-46" target="ilwAuIT0HePhSRycfTEz-47">
          <mxGeometry relative="1" as="geometry" />
        </mxCell>
        <mxCell id="ilwAuIT0HePhSRycfTEz-46" value="Update&lt;br&gt;Account Status" style="aspect=fixed;html=1;points=[];align=center;image;fontSize=12;image=img/lib/azure2/compute/Function_Apps.svg;" vertex="1" parent="1">
          <mxGeometry x="301.5" y="1014" width="45" height="39.71" as="geometry" />
        </mxCell>
        <mxCell id="ilwAuIT0HePhSRycfTEz-47" value="Consents" style="aspect=fixed;html=1;points=[];align=center;image;fontSize=12;image=img/lib/azure2/databases/Azure_Cosmos_DB.svg;" vertex="1" parent="1">
          <mxGeometry x="457" y="1011.3599999999999" width="45" height="45" as="geometry" />
        </mxCell>
        <mxCell id="ilwAuIT0HePhSRycfTEz-49" style="rounded=0;orthogonalLoop=1;jettySize=auto;html=1;" edge="1" parent="1" source="ilwAuIT0HePhSRycfTEz-40" target="ilwAuIT0HePhSRycfTEz-46">
          <mxGeometry relative="1" as="geometry" />
        </mxCell>
        <mxCell id="ilwAuIT0HePhSRycfTEz-50" style="rounded=0;orthogonalLoop=1;jettySize=auto;html=1;" edge="1" parent="1" source="ilwAuIT0HePhSRycfTEz-40" target="ilwAuIT0HePhSRycfTEz-43">
          <mxGeometry relative="1" as="geometry" />
        </mxCell>
        <mxCell id="ilwAuIT0HePhSRycfTEz-55" style="edgeStyle=none;rounded=0;orthogonalLoop=1;jettySize=auto;html=1;" edge="1" parent="1" source="ilwAuIT0HePhSRycfTEz-52" target="ilwAuIT0HePhSRycfTEz-54">
          <mxGeometry relative="1" as="geometry" />
        </mxCell>
        <mxCell id="ilwAuIT0HePhSRycfTEz-52" value="MDM" style="aspect=fixed;perimeter=ellipsePerimeter;html=1;align=center;shadow=0;dashed=0;spacingTop=3;image;image=img/lib/active_directory/sql_server.svg;" vertex="1" parent="1">
          <mxGeometry x="26.75" y="689.65" width="38.5" height="50" as="geometry" />
        </mxCell>
        <mxCell id="ilwAuIT0HePhSRycfTEz-57" style="edgeStyle=none;rounded=0;orthogonalLoop=1;jettySize=auto;html=1;" edge="1" parent="1" source="ilwAuIT0HePhSRycfTEz-54" target="ilwAuIT0HePhSRycfTEz-56">
          <mxGeometry relative="1" as="geometry" />
        </mxCell>
        <mxCell id="ilwAuIT0HePhSRycfTEz-54" value="" style="aspect=fixed;html=1;points=[];align=center;image;fontSize=12;image=img/lib/mscae/Service_Bus.svg;" vertex="1" parent="1">
          <mxGeometry x="27.010000000000005" y="804.01" width="37.99" height="37.99" as="geometry" />
        </mxCell>
        <mxCell id="ilwAuIT0HePhSRycfTEz-58" style="edgeStyle=none;rounded=0;orthogonalLoop=1;jettySize=auto;html=1;" edge="1" parent="1" source="ilwAuIT0HePhSRycfTEz-56" target="ilwAuIT0HePhSRycfTEz-2">
          <mxGeometry relative="1" as="geometry" />
        </mxCell>
        <mxCell id="ilwAuIT0HePhSRycfTEz-59" style="edgeStyle=none;rounded=0;orthogonalLoop=1;jettySize=auto;html=1;" edge="1" parent="1" source="ilwAuIT0HePhSRycfTEz-56" target="ilwAuIT0HePhSRycfTEz-34">
          <mxGeometry relative="1" as="geometry" />
        </mxCell>
        <mxCell id="ilwAuIT0HePhSRycfTEz-56" value="MDM Consumer" style="aspect=fixed;html=1;points=[];align=center;image;fontSize=12;image=img/lib/azure2/compute/Function_Apps.svg;" vertex="1" parent="1">
          <mxGeometry x="23.5" y="899" width="45" height="39.71" as="geometry" />
        </mxCell>
      </root>
    </mxGraphModel>
  </diagram>
</mxfile>
